M48
INCH
T10C0.034167
T11C0.042000
T12C0.035000
T13C0.038000
T14C0.061111
T15C0.100000
T16C0.015748
%
T10
X047777Y021222
X048777Y021222
X049777Y021222
X050777Y021222
X051777Y021222
X052777Y021222
X054777Y021222
X055777Y021222
X056777Y021222
X057777Y021222
X058777Y021222
X059777Y021222
X060777Y021222
X061777Y021222
X047777Y002222
X048777Y002222
X049777Y002222
X050777Y002222
X051777Y002222
X052777Y002222
X053777Y002222
X054777Y002222
X056477Y002222
X057477Y002222
X058477Y002222
X059477Y002222
X060477Y002222
X061477Y002222
X062477Y002222
X063477Y002222
X064547Y002222
X065547Y002222
T11
X026777Y008202
X026777Y005222
X022777Y008202
X022777Y005222
X030777Y008202
X030777Y005222
X018777Y008202
X018777Y005222
X028777Y011222
X028777Y014222
X038777Y011222
X038777Y014222
X008777Y011222
X008777Y014222
X018777Y011222
X018777Y014222
X034777Y021222
X033777Y021222
X032777Y021222
X024777Y021222
X023777Y021222
X022777Y021222
X014777Y021222
X013777Y021222
X012777Y021222
X004777Y021222
X003777Y021222
X002777Y021222
T12
X050777Y004222
X050777Y008222
X013777Y014222
X013777Y018222
X023777Y014222
X023777Y018222
X033777Y014222
X033777Y018222
X057777Y004222
X057777Y008222
X052777Y004222
X052777Y008222
X053777Y004222
X053777Y008222
X003777Y014222
X003777Y018222
T13
X001777Y006222
X001777Y007222
X001777Y008222
X021777Y005222
X021777Y006222
X029777Y005222
X029777Y006222
X025777Y005222
X025777Y006222
X017777Y005222
X017777Y006222
T14
X015664Y003222
X006777Y003222
T15
X003977Y001322
X002777Y003222
X005177Y003222
T16
X010597Y014412
X010597Y010412
X021587Y014412
X021587Y010412
X024617Y010412
X024617Y014412
X041587Y009402
X003607Y009402
X032617Y014412
X032617Y010412
T00
M30
